<?xml version="1.0" encoding="UTF-8" standalone="no"?>
<svg xmlns:xlink="http://www.w3.org/1999/xlink" height="844.5px" width="1508.0px" xmlns="http://www.w3.org/2000/svg">
  <g transform="matrix(0.5, 0.0, 0.0, 0.5, 0.0, 0.0)">
   <use height="1688.0" transform="matrix(1.00,0.00,0.00,1.00,0.00,0.00)" width="3000.0" xlink:href="#shape0"/>
   
 
    <use height="254.75" transform="matrix(1.00,0.00,0.00,1.00,1212.15,641.50)" width="345.8" xlink:href="#shape10"/>
    <use height="284.35" transform="matrix(1.00,0.00,0.00,1.00,679.20,648.30)" width="556.8" xlink:href="#shape11"/>
    <use height="6.7" transform="matrix(1.00,0.00,0.00,1.00,1545.80,948.60)" width="51.2" xlink:href="#shape12"/>
    <use height="6.7" transform="matrix(1.00,0.00,0.00,1.00,634.25,948.60)" width="577.2" xlink:href="#shape13"/>
    <use height="57.45" transform="matrix(1.00,0.00,0.00,1.00,1484.50,899.70)" width="62.8" xlink:href="#shape14"/>
    <use height="53.7" transform="matrix(1.00,0.00,0.00,1.00,1448.90,901.45)" width="26.1" xlink:href="#shape15"/>
    <use height="24.85" transform="matrix(1.00,0.00,0.00,1.00,1447.80,870.35)" width="28.2" xlink:href="#shape16"/>
    <use height="82.5" transform="matrix(1.00,0.00,0.00,1.00,1374.10,874.65)" width="63.25" xlink:href="#shape17"/>
    <use height="55.7" transform="matrix(1.00,0.00,0.00,1.00,1305.90,901.45)" width="59.65" xlink:href="#shape18"/>
    <use height="77.6" transform="matrix(1.00,0.00,0.00,1.00,1219.80,877.55)" width="84.15" xlink:href="#shape19"/>
  </g>
  <defs>
    <g id="shape0" transform="matrix(1.0, 0.0, 0.0, 1.0, 0.0, 0.0)">
      <path d="M3000.0 1688.0 L0.0 1688.0 0.0 0.0 3000.0 0.0 3000.0 1688.0" fill="#000000" fill-rule="evenodd" stroke="none"/>
    </g>
    <g id="shape10" transform="matrix(1.0, 0.0, 0.0, 1.0, 0.0, 0.0)">
      <path d="M73.45 231.1 Q110.2 223.3 130.85 209.9 151.5 196.55 151.25 175.2 148.75 167.0 133.7 161.95 118.65 156.9 97.3 152.75 75.95 148.6 54.55 143.1 33.2 137.55 18.05 128.35 2.95 119.2 0.35 104.05 -0.75 95.7 1.6 89.65 3.95 83.65 9.45 77.85 40.2 45.35 79.4 28.15 118.6 10.95 160.1 5.0 201.65 -1.0 239.3 0.1 276.95 1.25 304.6 5.35 332.2 9.5 343.6 12.5 344.8 12.8 345.8 13.15 L322.45 48.65 314.2 47.15 Q286.65 45.2 254.3 45.75 221.95 46.3 190.2 50.1 158.4 53.9 132.55 61.8 106.7 69.65 92.15 82.45 84.9 89.1 87.35 92.9 89.85 96.7 98.35 100.45 121.35 110.85 150.45 116.2 179.55 121.6 204.7 128.55 229.8 135.45 240.85 150.55 251.9 165.6 238.8 195.4 233.5 203.55 228.15 209.95 222.75 216.35 215.3 222.95 L188.8 222.95 188.75 239.85 Q181.8 244.45 175.45 247.75 169.1 251.1 161.05 254.75 L161.05 249.05 86.1 249.05 79.9 249.05 73.45 231.1" fill="#ffffff" fill-opacity="0.09411765" fill-rule="evenodd" stroke="none"/>
    </g>
    <g id="shape11" transform="matrix(1.0, 0.0, 0.0, 1.0, 0.0, 0.0)">
      <path d="M271.25 69.95 Q243.6 97.8 215.9 125.65 212.45 128.85 212.8 129.3 213.15 129.7 218.6 129.45 229.45 129.4 252.2 127.6 274.95 125.8 302.55 121.5 330.2 117.2 355.7 109.65 381.15 102.1 397.5 90.55 413.8 78.95 413.95 62.6 413.0 47.05 399.8 41.85 386.6 36.6 366.95 38.55 347.25 40.45 326.85 46.35 306.45 52.25 291.1 58.95 275.75 65.65 271.25 69.95 M0.0 260.35 Q3.0 256.05 26.7 231.25 50.4 206.5 84.8 171.2 119.2 135.95 154.25 100.25 189.3 64.55 215.05 38.4 240.75 12.25 247.15 5.75 250.6 1.85 252.2 0.85 253.8 -0.2 259.0 0.0 292.75 0.3 326.5 0.6 L332.7 6.85 Q338.3 10.3 356.85 7.2 375.4 4.05 400.05 1.2 424.65 -1.7 448.5 2.55 472.3 6.8 488.4 25.05 504.1 57.95 493.05 82.35 482.05 106.75 453.85 123.85 425.65 140.9 389.95 151.9 354.2 162.85 320.5 168.95 286.8 175.05 264.75 177.4 242.75 179.8 241.95 179.7 252.95 194.55 285.7 206.05 318.45 217.55 364.3 224.75 410.15 231.9 460.45 233.8 510.75 235.7 556.8 231.35 L537.95 284.35 Q479.4 287.2 420.15 280.75 360.95 274.3 307.6 260.6 254.25 246.85 213.3 227.85 172.4 208.8 150.4 186.45 114.8 223.25 79.15 260.1 79.05 260.2 78.9 260.35 L0.0 260.35" fill="#ffffff" fill-opacity="0.09411765" fill-rule="evenodd" stroke="none"/>
    </g>
    <g id="shape12" transform="matrix(1.0, 0.0, 0.0, 1.0, 0.0, 0.0)">
      <path d="M5.45 0.0 L51.2 0.0 51.2 6.7 0.0 6.7 Q2.6 4.15 4.55 1.25 5.0 0.6 5.45 0.0" fill="#ffffff" fill-opacity="0.09411765" fill-rule="evenodd" stroke="none"/>
    </g>
    <g id="shape13" transform="matrix(1.0, 0.0, 0.0, 1.0, 0.0, 0.0)">
      <path d="M6.45 0.0 L577.2 0.05 575.8 4.05 574.85 6.7 0.0 6.7 6.45 0.0" fill="#ffffff" fill-opacity="0.09411765" fill-rule="evenodd" stroke="none"/>
    </g>
    <g id="shape14" transform="matrix(1.0, 0.0, 0.0, 1.0, 0.0, 0.0)">
      <path d="M31.2 39.6 Q35.35 39.6 37.95 36.6 40.6 33.6 40.55 28.75 40.55 23.85 38.0 20.9 35.4 17.95 31.2 17.95 26.9 17.95 24.3 20.9 21.75 23.85 21.75 28.75 21.75 33.7 24.3 36.6 26.9 39.6 31.2 39.6 M62.8 28.7 Q62.8 34.8 60.2 40.3 57.6 45.8 52.75 50.0 48.55 53.65 43.15 55.55 37.7 57.45 31.4 57.45 25.15 57.45 19.75 55.55 14.35 53.7 10.0 50.0 5.25 45.95 2.6 40.4 0.0 34.8 0.0 28.7 0.0 22.6 2.6 17.05 5.25 11.5 10.0 7.45 14.35 3.75 19.75 1.85 25.15 0.0 31.4 0.0 37.7 0.0 43.15 1.9 48.55 3.8 52.85 7.45 57.6 11.45 60.2 17.05 62.8 22.6 62.8 28.7" fill="#ffffff" fill-opacity="0.09411765" fill-rule="evenodd" stroke="none"/>
    </g>
    <g id="shape15" transform="matrix(1.0, 0.0, 0.0, 1.0, 0.0, 0.0)">
      <path d="M0.0 53.7 L0.0 0.0 26.1 0.0 26.1 53.7 0.0 53.7" fill="#ffffff" fill-opacity="0.09411765" fill-rule="evenodd" stroke="none"/>
    </g>
    <g id="shape16" transform="matrix(1.0, 0.0, 0.0, 1.0, 0.0, 0.0)">
      <path d="M28.2 12.3 Q28.2 18.05 24.4 21.45 20.65 24.85 14.2 24.85 7.7 24.9 3.85 21.45 0.0 18.0 0.0 12.3 0.0 6.6 3.8 3.3 7.55 0.0 14.2 0.0 20.7 0.0 24.45 3.3 28.2 6.6 28.2 12.3" fill="#ffffff" fill-opacity="0.09411765" fill-rule="evenodd" stroke="none"/>
    </g>
    <g id="shape17" transform="matrix(1.0, 0.0, 0.0, 1.0, 0.0, 0.0)">
      <path d="M31.7 42.3 Q27.25 42.3 24.55 45.45 21.85 48.55 21.85 53.75 21.85 58.95 24.55 62.2 27.35 65.5 31.7 65.5 36.0 65.5 38.8 62.2 41.5 58.95 41.5 53.75 41.5 48.55 38.8 45.45 36.1 42.3 31.7 42.3 M63.25 0.0 L63.25 80.5 39.0 80.5 39.0 72.6 Q35.6 77.6 31.3 80.05 27.0 82.5 21.65 82.5 11.95 82.55 5.95 74.6 0.0 66.65 0.0 53.5 0.0 41.0 6.15 33.1 12.25 25.2 21.65 25.2 26.75 25.2 30.85 27.5 34.95 29.8 38.15 34.45 37.9 32.8 37.8 30.55 37.65 28.3 37.65 25.0 L37.65 0.0 63.25 0.0" fill="#ffffff" fill-opacity="0.09411765" fill-rule="evenodd" stroke="none"/>
    </g>
    <g id="shape18" transform="matrix(1.0, 0.0, 0.0, 1.0, 0.0, 0.0)">
      <path d="M0.0 0.0 L23.25 0.0 23.25 26.25 Q23.25 28.95 23.5 30.0 23.7 31.0 24.15 31.7 24.8 32.65 26.65 33.85 28.55 35.1 29.9 35.2 31.2 35.1 33.05 33.9 34.9 32.7 35.5 31.8 35.95 31.15 36.2 30.1 36.4 29.05 36.4 26.25 L36.4 0.0 59.65 0.0 59.65 28.95 Q59.7 42.85 52.5 49.3 45.4 55.7 29.9 55.7 14.4 55.7 7.2 49.3 0.0 42.85 0.0 28.95 L0.0 0.0" fill="#ffffff" fill-opacity="0.09411765" fill-rule="evenodd" stroke="none"/>
    </g>
    <g id="shape19" transform="matrix(1.0, 0.0, 0.0, 1.0, 0.0, 0.0)">
      <path d="M33.95 49.95 L49.45 49.95 47.1 41.35 Q45.4 34.8 44.8 31.25 44.15 27.75 44.0 24.65 L39.4 24.65 Q39.25 27.75 38.65 31.25 38.0 34.8 36.3 41.35 L33.95 49.95 M0.0 77.6 L27.1 0.0 57.55 0.0 84.15 77.6 54.75 77.6 52.3 68.05 31.7 68.05 29.35 77.6 0.0 77.6" fill="#ffffff" fill-opacity="0.09411765" fill-rule="evenodd" stroke="none"/>
    </g>
  </defs>
</svg>
