<?xml version="1.0" encoding="UTF-8" standalone="no"?>
<svg
   height="216.24001"
   width="173.24001"
   version="1.1"
   id="svg214"
   sodipodi:docname="frame.svg"
   inkscape:version="1.2.2 (732a01da63, 2022-12-09)"
   xmlns:inkscape="http://www.inkscape.org/namespaces/inkscape"
   xmlns:sodipodi="http://sodipodi.sourceforge.net/DTD/sodipodi-0.dtd"
   xmlns:xlink="http://www.w3.org/1999/xlink"
   xmlns="http://www.w3.org/2000/svg"
   xmlns:svg="http://www.w3.org/2000/svg">
  <sodipodi:namedview
     id="namedview216"
     pagecolor="#ffffff"
     bordercolor="#000000"
     borderopacity="0.25"
     inkscape:showpageshadow="2"
     inkscape:pageopacity="0.0"
     inkscape:pagecheckerboard="0"
     inkscape:deskcolor="#d1d1d1"
     showgrid="false"
     inkscape:zoom="2.7700449"
     inkscape:cx="-37.72502"
     inkscape:cy="94.041797"
     inkscape:window-width="1920"
     inkscape:window-height="1001"
     inkscape:window-x="-9"
     inkscape:window-y="1341"
     inkscape:window-maximized="1"
     inkscape:current-layer="svg214" />
  <g
     transform="matrix(0.5,0,0,0.53,-1093.2687,-0.72776025)"
     id="g174">
    <use
       height="407.89999"
       transform="translate(2186.65,1.45)"
       width="346.29999"
       xlink:href="#shape0"
       id="use168" />
  </g>
  <defs
     id="defs212">
    <g
       id="shape0">
      <path
         d="M 341.35,407.25 H 5 Q 1.05,406.85 0.65,402.9 V 5 Q 1.05,1.05 5,0.65 h 336.35 q 3.95,0.4 4.3,4.35 v 397.9 q -0.35,3.95 -4.3,4.35"
         fill="url(#gradient0)"
         fill-rule="evenodd"
         stroke="none"
         id="path176" />
      <path
         d="M 341.35,407.25 H 5 Q 1.05,406.85 0.65,402.9 V 5 Q 1.05,1.05 5,0.65 h 336.35 q 3.95,0.4 4.3,4.35 v 397.9 q -0.35,3.95 -4.3,4.35 z"
         fill="none"
         stroke="#777777"
         stroke-linecap="round"
         stroke-linejoin="round"
         stroke-width="1.35"
         id="path178" />
    </g>
    <linearGradient
       gradientTransform="matrix(0,-0.2481,0.2481,0,173.15,203.95)"
       gradientUnits="userSpaceOnUse"
       id="gradient0"
       spreadMethod="pad"
       x1="-819.20001"
       x2="819.20001">
      <stop
         offset="0.0"
         stop-color="#000000"
         id="stop181" />
      <stop
         offset="0.4980392156862745"
         stop-color="#1d1d1b"
         id="stop183" />
      <stop
         offset="1.0"
         stop-color="#000000"
         id="stop185" />
    </linearGradient>
    <g
       id="shape1">
      <path
         d="M 341.35,406.8 H 5 Q 1.05,406.4 0.65,402.45 V 5 Q 1.05,1.05 5,0.65 h 336.35 q 3.95,0.4 4.3,4.35 v 397.45 q -0.35,3.95 -4.3,4.35"
         fill="url(#gradient1)"
         fill-rule="evenodd"
         stroke="none"
         id="path188" />
      <path
         d="M 341.35,406.8 H 5 Q 1.05,406.4 0.65,402.45 V 5 Q 1.05,1.05 5,0.65 h 336.35 q 3.95,0.4 4.3,4.35 v 397.45 q -0.35,3.95 -4.3,4.35 z"
         fill="none"
         stroke="#777777"
         stroke-linecap="round"
         stroke-linejoin="round"
         stroke-width="1.35"
         id="path190" />
    </g>
    <linearGradient
       gradientTransform="matrix(0,-0.2479,0.2479,0,173.15,203.7)"
       gradientUnits="userSpaceOnUse"
       id="gradient1"
       spreadMethod="pad"
       x1="-819.20001"
       x2="819.20001">
      <stop
         offset="0.0"
         stop-color="#000000"
         id="stop193" />
      <stop
         offset="0.4980392156862745"
         stop-color="#1d1d1b"
         id="stop195" />
      <stop
         offset="1.0"
         stop-color="#000000"
         id="stop197" />
    </linearGradient>
    <g
       id="shape2">
      <path
         d="M 2168.2,407.3 H 5.1 Q 1.15,406.95 0.75,402.95 V 5.1 Q 1.15,1.15 5.1,0.75 h 2163.1 q 3.95,0.4 4.35,4.35 v 397.85 q -0.4,4 -4.35,4.35"
         fill="url(#gradient2)"
         fill-rule="evenodd"
         stroke="none"
         id="path200" />
      <path
         d="M 2168.2,407.3 H 5.1 Q 1.15,406.95 0.75,402.95 V 5.1 Q 1.15,1.15 5.1,0.75 h 2163.1 q 3.95,0.4 4.35,4.35 v 397.85 q -0.4,4 -4.35,4.35 z"
         fill="none"
         stroke="#777777"
         stroke-linecap="round"
         stroke-linejoin="round"
         stroke-width="1.5"
         id="path202" />
    </g>
    <linearGradient
       gradientTransform="matrix(0,-0.2481,0.2481,0,1086.65,204.05)"
       gradientUnits="userSpaceOnUse"
       id="gradient2"
       spreadMethod="pad"
       x1="-819.20001"
       x2="819.20001">
      <stop
         offset="0.0"
         stop-color="#000000"
         id="stop205" />
      <stop
         offset="0.4980392156862745"
         stop-color="#1d1d1b"
         id="stop207" />
      <stop
         offset="1.0"
         stop-color="#000000"
         id="stop209" />
    </linearGradient>
  </defs>
</svg>
