<?xml version="1.0" encoding="UTF-8" standalone="no"?>
<svg xmlns:xlink="http://www.w3.org/1999/xlink" height="364.4px" width="1086.75px" xmlns="http://www.w3.org/2000/svg">
  <g transform="matrix(0.5, 0.0, 0.0, 0.5, 0.0, 0.0)">
    <path d="M2169.85 728.15 L3.65 728.15 Q0.9 727.9 0.65 725.15 L0.65 3.65 Q0.95 0.9 3.65 0.65 L2169.85 0.65 Q2172.6 0.95 2172.85 3.65 L2172.85 725.15 Q2172.55 727.9 2169.85 728.15" fill="#131313" fill-rule="evenodd" stroke="none"/>
    <path d="M2169.85 728.15 L3.65 728.15 Q0.9 727.9 0.65 725.15 L0.65 3.65 Q0.95 0.9 3.65 0.65 L2169.85 0.65 Q2172.6 0.95 2172.85 3.65 L2172.85 725.15 Q2172.55 727.9 2169.85 728.15 Z" fill="none" stroke="#777777" stroke-linecap="round" stroke-linejoin="round" stroke-width="1.3"/>
  </g>
</svg>
