<?xml version="1.0" encoding="UTF-8" standalone="no"?>
<svg
   height="300"
   width="980"
   version="1.1"
   id="svg12"
   sodipodi:docname="level_frame.svg"
   inkscape:version="1.3 (0e150ed6c4, 2023-07-21)"
   xmlns:inkscape="http://www.inkscape.org/namespaces/inkscape"
   xmlns:sodipodi="http://sodipodi.sourceforge.net/DTD/sodipodi-0.dtd"
   xmlns:xlink="http://www.w3.org/1999/xlink"
   xmlns="http://www.w3.org/2000/svg"
   xmlns:svg="http://www.w3.org/2000/svg">
  <sodipodi:namedview
     id="namedview12"
     pagecolor="#505050"
     bordercolor="#ffffff"
     borderopacity="1"
     inkscape:showpageshadow="0"
     inkscape:pageopacity="0"
     inkscape:pagecheckerboard="1"
     inkscape:deskcolor="#505050"
     inkscape:zoom="0.53750853"
     inkscape:cx="280.92578"
     inkscape:cy="105.11461"
     inkscape:window-width="1920"
     inkscape:window-height="1001"
     inkscape:window-x="-9"
     inkscape:window-y="-9"
     inkscape:window-maximized="1"
     inkscape:current-layer="svg12" />
  <use
     height="408"
     transform="matrix(0.45085522,0,0,0.73561277,0.0781786,-0.0833954)"
     width="2173.25"
     xlink:href="#shape2"
     id="use3"
     style="display:inline;stroke-width:0;stroke-dasharray:none;image-rendering:auto" />
  <defs
     id="defs12">
    <g
       id="shape0">
      <path
         d="M 341.35,407.25 H 5 Q 1.05,406.85 0.65,402.9 V 5 Q 1.05,1.05 5,0.65 h 336.35 q 3.95,0.4 4.3,4.35 v 397.9 q -0.35,3.95 -4.3,4.35"
         fill="url(#gradient0)"
         fill-rule="evenodd"
         stroke="none"
         id="path3" />
      <path
         d="M 341.35,407.25 H 5 Q 1.05,406.85 0.65,402.9 V 5 Q 1.05,1.05 5,0.65 h 336.35 q 3.95,0.4 4.3,4.35 v 397.9 q -0.35,3.95 -4.3,4.35 z"
         fill="none"
         stroke="#777777"
         stroke-linecap="round"
         stroke-linejoin="round"
         stroke-width="1.35"
         id="path4" />
    </g>
    <linearGradient
       gradientTransform="matrix(0,-0.2481,0.2481,0,173.15,203.95)"
       gradientUnits="userSpaceOnUse"
       id="gradient0"
       spreadMethod="pad"
       x1="-819.20001"
       x2="819.20001">
      <stop
         offset="0.0"
         stop-color="#000000"
         id="stop4" />
      <stop
         offset="0.4980392156862745"
         stop-color="#1d1d1b"
         id="stop5" />
      <stop
         offset="1.0"
         stop-color="#000000"
         id="stop6" />
    </linearGradient>
    <g
       id="shape1">
      <path
         d="M 341.35,406.8 H 5 Q 1.05,406.4 0.65,402.45 V 5 Q 1.05,1.05 5,0.65 h 336.35 q 3.95,0.4 4.3,4.35 v 397.45 q -0.35,3.95 -4.3,4.35"
         fill="url(#gradient1)"
         fill-rule="evenodd"
         stroke="none"
         id="path6" />
      <path
         d="M 341.35,406.8 H 5 Q 1.05,406.4 0.65,402.45 V 5 Q 1.05,1.05 5,0.65 h 336.35 q 3.95,0.4 4.3,4.35 v 397.45 q -0.35,3.95 -4.3,4.35 z"
         fill="none"
         stroke="#777777"
         stroke-linecap="round"
         stroke-linejoin="round"
         stroke-width="1.35"
         id="path7" />
    </g>
    <linearGradient
       gradientTransform="matrix(0,-0.2479,0.2479,0,173.15,203.7)"
       gradientUnits="userSpaceOnUse"
       id="gradient1"
       spreadMethod="pad"
       x1="-819.20001"
       x2="819.20001">
      <stop
         offset="0.0"
         stop-color="#000000"
         id="stop7" />
      <stop
         offset="0.4980392156862745"
         stop-color="#1d1d1b"
         id="stop8" />
      <stop
         offset="1.0"
         stop-color="#000000"
         id="stop9" />
    </linearGradient>
    <g
       id="shape2">
      <path
         d="M 2168.2,407.3 H 5.1 Q 1.15,406.95 0.75,402.95 V 5.1 Q 1.15,1.15 5.1,0.75 h 2163.1 q 3.95,0.4 4.35,4.35 v 397.85 q -0.4,4 -4.35,4.35"
         fill="url(#gradient2)"
         fill-rule="evenodd"
         stroke="none"
         id="path9" />
      <path
         d="M 2168.2,407.3 H 5.1 Q 1.15,406.95 0.75,402.95 V 5.1 Q 1.15,1.15 5.1,0.75 h 2163.1 q 3.95,0.4 4.35,4.35 v 397.85 q -0.4,4 -4.35,4.35 z"
         fill="none"
         stroke="#777777"
         stroke-linecap="round"
         stroke-linejoin="round"
         stroke-width="1.5"
         id="path10" />
    </g>
    <linearGradient
       gradientTransform="matrix(0,-0.2481,0.2481,0,1086.65,204.05)"
       gradientUnits="userSpaceOnUse"
       id="gradient2"
       spreadMethod="pad"
       x1="-819.20001"
       x2="819.20001">
      <stop
         offset="0.0"
         stop-color="#000000"
         id="stop10" />
      <stop
         offset="0.4980392156862745"
         stop-color="#1d1d1b"
         id="stop11" />
      <stop
         offset="1.0"
         stop-color="#000000"
         id="stop12" />
    </linearGradient>
  </defs>
</svg>
