<?xml version="1.0" encoding="UTF-8" standalone="no"?>
   <svg xmlns:xlink="http://www.w3.org/1999/xlink" height="408.00" width="2173.25" xmlns="http://www.w3.org/2000/svg">
  <g transform="matrix(0.5, 0.0, 0.0, 0.53, 0.0, 0.0)">
	<use height="407.9" transform="matrix(1.00,0.00,0.00,1.00,2186.65,1.45)" width="346.3" xlink:href="#shape0"/>
    <use height="407.45" transform="matrix(1.00,0.00,0.00,1.00,2546.00,0.00)" width="346.3" xlink:href="#shape1"/>
    <use height="408.0" transform="matrix(1.00,0.00,0.00,1.00,0.00,1.35)" width="2173.25" xlink:href="#shape2"/>
  </g>
  <defs>
    <g id="shape0" transform="matrix(1.0, 0.0, 0.0, 1.0, 0.0, 0.0)">
      <path d="M341.35 407.25 L5.0 407.25 Q1.05 406.85 0.65 402.9 L0.65 5.0 Q1.05 1.05 5.0 0.65 L341.35 0.65 Q345.3 1.05 345.65 5.0 L345.65 402.9 Q345.3 406.85 341.35 407.25" fill="url(#gradient0)" fill-rule="evenodd" stroke="none"/>
      <path d="M341.35 407.25 L5.0 407.25 Q1.05 406.85 0.65 402.9 L0.65 5.0 Q1.05 1.05 5.0 0.65 L341.35 0.65 Q345.3 1.05 345.65 5.0 L345.65 402.9 Q345.3 406.85 341.35 407.25 Z" fill="none" stroke="#777777" stroke-linecap="round" stroke-linejoin="round" stroke-width="1.35"/>
    </g>
    <linearGradient gradientTransform="matrix(0.0, -0.2481, 0.2481, 0.0, 173.15, 203.95)" gradientUnits="userSpaceOnUse" id="gradient0" spreadMethod="pad" x1="-819.2" x2="819.2">
      <stop offset="0.0" stop-color="#000000"/>
      <stop offset="0.4980392156862745" stop-color="#1d1d1b"/>
      <stop offset="1.0" stop-color="#000000"/>
    </linearGradient>
    <g id="shape1" transform="matrix(1.0, 0.0, 0.0, 1.0, 0.0, 0.0)">
      <path d="M341.35 406.8 L5.0 406.8 Q1.05 406.4 0.65 402.45 L0.65 5.0 Q1.05 1.05 5.0 0.65 L341.35 0.65 Q345.3 1.05 345.65 5.0 L345.65 402.45 Q345.3 406.4 341.35 406.8" fill="url(#gradient1)" fill-rule="evenodd" stroke="none"/>
      <path d="M341.35 406.8 L5.0 406.8 Q1.05 406.4 0.65 402.45 L0.65 5.0 Q1.05 1.05 5.0 0.65 L341.35 0.65 Q345.3 1.05 345.65 5.0 L345.65 402.45 Q345.3 406.4 341.35 406.8 Z" fill="none" stroke="#777777" stroke-linecap="round" stroke-linejoin="round" stroke-width="1.35"/>
    </g>
    <linearGradient gradientTransform="matrix(0.0, -0.2479, 0.2479, 0.0, 173.15, 203.7)" gradientUnits="userSpaceOnUse" id="gradient1" spreadMethod="pad" x1="-819.2" x2="819.2">
      <stop offset="0.0" stop-color="#000000"/>
      <stop offset="0.4980392156862745" stop-color="#1d1d1b"/>
      <stop offset="1.0" stop-color="#000000"/>
    </linearGradient>
    <g id="shape2" transform="matrix(1.0, 0.0, 0.0, 1.0, 0.0, 0.0)">
      <path d="M2168.2 407.3 L5.1 407.3 Q1.15 406.95 0.75 402.95 L0.75 5.1 Q1.15 1.15 5.1 0.75 L2168.2 0.75 Q2172.15 1.15 2172.55 5.1 L2172.55 402.95 Q2172.15 406.95 2168.2 407.3" fill="url(#gradient2)" fill-rule="evenodd" stroke="none"/>
      <path d="M2168.2 407.3 L5.1 407.3 Q1.15 406.95 0.75 402.95 L0.75 5.1 Q1.15 1.15 5.1 0.75 L2168.2 0.75 Q2172.15 1.15 2172.55 5.1 L2172.55 402.95 Q2172.15 406.95 2168.2 407.3 Z" fill="none" stroke="#777777" stroke-linecap="round" stroke-linejoin="round" stroke-width="1.5"/>
    </g>
    <linearGradient gradientTransform="matrix(0.0, -0.2481, 0.2481, 0.0, 1086.65, 204.05)" gradientUnits="userSpaceOnUse" id="gradient2" spreadMethod="pad" x1="-819.2" x2="819.2">
      <stop offset="0.0" stop-color="#000000"/>
      <stop offset="0.4980392156862745" stop-color="#1d1d1b"/>
      <stop offset="1.0" stop-color="#000000"/>
    </linearGradient>
  </defs>
</svg>
