<?xml version="1.0" encoding="UTF-8" standalone="no"?>
<svg xmlns:xlink="http://www.w3.org/1999/xlink" height="95.65px" width="481.775px" xmlns="http://www.w3.org/2000/svg">
  <g transform="matrix(0.5, 0.0, 0.0, 0.5, 0.0, 0.0)">
    <path d="M960.0 190.55 L3.6 190.55 Q1.0 190.3 0.75 187.7 L0.75 3.6 Q1.0 1.0 3.6 0.75 L960.0 0.75 Q962.55 1.0 962.8 3.6 L962.8 187.7 Q962.6 190.3 960.0 190.55" fill="url(#gradient0)" fill-rule="evenodd" stroke="none"/>
    <path d="M960.0 190.55 L3.6 190.55 Q1.0 190.3 0.75 187.7 L0.75 3.6 Q1.0 1.0 3.6 0.75 L960.0 0.75 Q962.55 1.0 962.8 3.6 L962.8 187.7 Q962.6 190.3 960.0 190.55 Z" fill="none" stroke="#777777" stroke-linecap="round" stroke-linejoin="round" stroke-width="1.5"/>
  </g>
  <defs>
    <linearGradient gradientTransform="matrix(0.0, -0.1158, 0.1158, 0.0, 481.8, 95.65)" gradientUnits="userSpaceOnUse" id="gradient0" spreadMethod="pad" x1="-819.2" x2="819.2">
      <stop offset="0.0" stop-color="#000000"/>
      <stop offset="0.4980392156862745" stop-color="#1d1d1b"/>
      <stop offset="1.0" stop-color="#000000"/>
    </linearGradient>
  </defs>
</svg>
