<?xml version="1.0" encoding="UTF-8" standalone="no"?>
<svg xmlns:xlink="http://www.w3.org/1999/xlink" height="24.2px" width="13.1px" xmlns="http://www.w3.org/2000/svg">
  <g transform="matrix(0.5, 0.0, 0.0, 0.5, 0.0, 0.0)">
     <use height="48.4" transform="matrix(1.00,0.00,0.00,1.00,0.00,0.00)" width="26.2" xlink:href="#shape0"/>
    <use height="33.05" transform="matrix(1.00,0.00,0.00,1.00,11.35,8.05)" width="3.5" xlink:href="#shape1"/>
  </g>
  <defs>
    <g id="shape0" transform="matrix(1.0, 0.0, 0.0, 1.0, 0.0, 0.0)">
      <path d="M0.35 46.95 L0.35 1.45 Q0.4 0.45 1.45 0.35 L24.75 0.35 Q25.8 0.4 25.9 1.45 L25.9 46.95 Q25.8 48.0 24.75 48.1 L1.45 48.1 Q0.45 48.0 0.35 46.95" fill="url(#gradient0)" fill-rule="evenodd" stroke="none"/>
      <path d="M0.35 46.95 L0.35 1.45 Q0.4 0.45 1.45 0.35 L24.75 0.35 Q25.8 0.4 25.9 1.45 L25.9 46.95 Q25.8 48.0 24.75 48.1 L1.45 48.1 Q0.45 48.0 0.35 46.95 Z" fill="none" stroke="#777777" stroke-linecap="round" stroke-linejoin="round" stroke-opacity="0.8980392" stroke-width="0.65"/>
    </g>
    <linearGradient gradientTransform="matrix(0.0156, 0.0, 0.0, 0.0156, 13.1, 24.2)" gradientUnits="userSpaceOnUse" id="gradient0" spreadMethod="pad" x1="-819.2" x2="819.2">
      <stop offset="0.0" stop-color="#666666" stop-opacity="0.8980392"/>
      <stop offset="0.5137254901960784" stop-color="#50504f" stop-opacity="0.8980392"/>
      <stop offset="1.0" stop-color="#222222" stop-opacity="0.8980392"/>
    </linearGradient>
    <g id="shape1" transform="matrix(1.0, 0.0, 0.0, 1.0, 0.0, 0.0)">
      <path d="M0.15 32.75 L0.15 0.3 Q0.15 0.15 0.3 0.15 L3.2 0.15 Q3.4 0.15 3.4 0.3 L3.4 32.75 Q3.4 32.95 3.2 32.95 L0.3 32.95 Q0.15 32.9 0.15 32.75" fill="url(#gradient1)" fill-rule="evenodd" stroke="none"/>
      <path d="M0.15 32.75 L0.15 0.3 Q0.15 0.15 0.3 0.15 L3.2 0.15 Q3.4 0.15 3.4 0.3 L3.4 32.75 Q3.4 32.95 3.2 32.95 L0.3 32.95 Q0.15 32.9 0.15 32.75 Z" fill="none" stroke="#00ff00" stroke-linecap="round" stroke-linejoin="round" stroke-width="0.9"/>
    </g>
    <linearGradient gradientTransform="matrix(0.002, 0.0, 0.0, 0.0014, 1.75, 16.55)" gradientUnits="userSpaceOnUse" id="gradient1" spreadMethod="pad" x1="-819.2" x2="819.2">
     <stop offset="0.0" stop-color="#002200"/>
      <stop offset="0.38823529411764707" stop-color="#00aa00"/>
      <stop offset="0.5333333333333333" stop-color="#00ff00"/>
      <stop offset="0.5372549019607843" stop-color="#00ff00"/>
      <stop offset="0.5607843137254902" stop-color="#00aa00"/>
      <stop offset="1.0" stop-color="#002200"/>
    </linearGradient>
  </defs>
</svg>
